<svg width="58" height="58" viewBox="0 0 58 58" fill="none" xmlns="http://www.w3.org/2000/svg">
<path d="M26.1145 47.5863C24.5291 49.1273 22.9702 50.6284 21.4323 52.149C21.0717 52.5055 20.6872 52.6567 20.1668 52.6545C16.9982 52.6414 13.8294 52.6552 10.6608 52.6558C10.5506 52.6558 10.4366 52.6647 10.3257 52.6611C9.976 52.6498 9.88169 52.2762 10.1339 52.0337V52.0337C15.2331 47.1328 20.3341 42.2336 25.4313 37.3308C26.1166 36.6717 26.1081 36.6636 25.4366 36.0167C23.862 34.4998 22.2886 32.9817 20.712 31.4667C19.9122 30.6982 19.902 30.6937 19.1217 31.4429C13.6978 36.6503 8.2776 41.8611 2.85441 47.0692C2.77114 47.1491 2.69262 47.2363 2.60979 47.3166C2.38059 47.5388 1.98874 47.4785 2.00226 47.1595V47.1595C2.14195 43.8657 2.0398 40.5705 2.05286 37.276C2.05509 36.7125 2.2126 36.3069 2.6393 35.9009C6.35764 32.3623 10.0506 28.7994 13.7532 25.2458C14.6881 24.3485 14.6951 24.3487 13.7707 23.4605C10.4241 20.2448 7.07474 17.0317 3.72719 13.8169C3.34095 13.4459 2.9835 13.0437 2.56967 12.7039C2.05808 12.284 2.05389 11.9766 2.55238 11.4971C5.71992 8.44989 8.85516 5.3719 11.9984 2.30161C13.2588 1.07052 14.5273 -0.153398 15.7602 -1.40932C16.1375 -1.79364 16.5489 -1.96174 17.0775 -1.9618C19.2203 -1.96206 21.3632 -1.96331 23.506 -1.9789C23.9518 -1.98215 24.2784 -1.82388 24.5864 -1.52366C26.3113 0.157587 28.0468 1.82898 29.7861 3.49663C30.8769 4.54242 30.8979 4.53274 31.9577 3.49353C33.6456 1.8384 35.3467 0.195619 37.0252 -1.46818C37.3328 -1.77304 37.6622 -1.94247 38.0964 -1.94604C38.6432 -1.95053 39.19 -1.9637 39.7369 -1.96506C43.9542 -1.97554 48.1715 -1.9847 52.3888 -1.99174C52.4141 -1.99178 52.4395 -1.9922 52.465 -1.99283C52.9282 -2.0043 53.1654 -1.65717 52.8327 -1.33474V-1.33474C48.4273 2.93434 44.017 7.19873 39.6084 11.4648C38.941 12.1107 38.9351 12.1905 39.6022 12.8346C41.4157 14.5857 43.2336 16.3326 45.0556 18.0756C45.687 18.6796 45.7051 18.6819 46.3542 18.0632C49.326 15.2301 52.2901 12.3896 55.2613 9.55595V9.55595C55.7933 9.04855 56.5231 9.42056 56.5404 10.1556C56.5416 10.2084 56.5424 10.2611 56.5426 10.3139C56.5567 13.4784 56.5503 16.6429 56.573 19.8073C56.5761 20.2438 56.4083 20.5427 56.099 20.8359C53.5398 23.2621 50.9905 25.6978 48.4384 28.1309C47.6515 28.8812 47.6388 28.9331 48.434 29.6897C51.1663 32.2894 53.8995 34.8884 56.6557 37.4647C57.0985 37.8786 57.1234 38.1354 56.6769 38.5625C52.9197 42.1564 49.1795 45.7666 45.442 49.3794C44.3033 50.48 43.1774 51.5933 42.0703 52.7229C41.6984 53.1024 41.4486 53.0834 41.0722 52.7192C37.9934 49.7412 34.8994 46.7775 31.8047 43.8146C30.9472 42.9936 30.8691 43.0019 30.0033 43.8365C28.7181 45.0752 27.4335 46.3144 26.1145 47.5863ZM37.7022 38.4007C39.4118 40.0984 41.1214 41.796 42.838 43.5007C42.888 43.5503 42.9756 43.6002 43.0264 43.5514V43.5514C44.6656 41.9754 46.3019 40.3965 47.94 38.8194C48.1646 38.6031 48.0534 38.4355 47.8732 38.2644C46.32 36.7892 44.7657 35.3149 43.2185 33.8338C42.9504 33.5772 42.7299 33.5813 42.4721 33.8433C42.066 34.2561 41.6344 34.646 41.2283 35.0589C40.9447 35.3472 40.717 35.4107 40.3837 35.0849C38.5977 33.3391 36.7986 31.6054 34.9866 29.8843C34.6011 29.5182 34.553 29.2742 34.9765 28.8769C36.4739 27.4723 37.9321 26.0293 39.4007 24.5968C40.1738 23.8426 40.1793 23.6828 39.4143 22.9421C34.719 18.3963 30.0185 13.8555 25.3223 9.31053C23.8157 7.85247 22.3181 6.38583 20.8131 4.92623C20.5142 4.63637 20.2189 4.36151 19.7863 4.78424C17.2506 7.26223 14.708 9.73379 12.1635 12.2035C11.8471 12.5106 11.8271 12.7789 12.1585 13.0949C14.3224 15.1574 16.4825 17.2236 18.6335 19.2983C19.0994 19.7477 19.4671 19.751 19.9406 19.2744C21.0554 18.1523 22.2291 17.084 23.3548 15.9716C23.7077 15.6228 23.9432 15.6249 24.2987 15.9736C25.97 17.6132 27.6587 19.2369 29.3567 20.8513C29.6954 21.1734 29.6909 21.389 29.3428 21.705C28.3507 22.6056 27.3837 23.5319 26.4188 24.4594V24.4594C25.5868 25.259 25.6259 26.4667 26.4467 27.2778C30.1809 30.9679 33.9149 34.6578 37.7022 38.4007Z" fill="#1E1E1E"/>
</svg>
